<svg xmlns="http://www.w3.org/2000/svg"
  viewBox="0 0 501 84" width="501" height="84"
  role="img" aria-label="Sweat &amp; Sound">
  <title>Sweat &amp; Sound</title>
  <path fill="#3D1F0A" d="M22.432 20.232Q26.032 20.232 27.904 21.06Q29.776 21.888 31.216 22.896Q32.08 23.4 32.62 23.652Q33.16 23.904 33.664 23.904Q34.384 23.904 34.708 23.112Q35.032 22.32 35.248 20.736H36.904Q36.832 21.96 36.724 23.652Q36.616 25.344 36.58 28.116Q36.544 30.888 36.544 35.424H34.888Q34.672 31.968 33.376 28.8Q32.08 25.632 29.596 23.616Q27.112 21.6 23.08 21.6Q19.264 21.6 16.78 23.904Q14.296 26.208 14.296 29.952Q14.296 33.192 15.952 35.388Q17.608 37.584 20.38 39.348Q23.152 41.112 26.392 43.128Q30.136 45.432 33.052 47.7Q35.968 49.968 37.66 52.704Q39.352 55.44 39.352 59.328Q39.352 63.936 37.264 66.96Q35.176 69.984 31.72 71.496Q28.264 73.008 24.088 73.008Q20.272 73.008 18.04 72.144Q15.808 71.28 14.224 70.344Q12.64 69.336 11.776 69.336Q11.056 69.336 10.732 70.128Q10.408 70.92 10.192 72.504H8.536Q8.68 70.992 8.716 68.94Q8.752 66.888 8.788 63.576Q8.824 60.264 8.824 55.224H10.48Q10.768 59.544 12.1 63.288Q13.432 67.032 16.204 69.3Q18.976 71.568 23.584 71.568Q25.96 71.568 28.084 70.596Q30.208 69.624 31.576 67.5Q32.944 65.376 32.944 61.992Q32.944 59.04 31.54 56.844Q30.136 54.648 27.616 52.74Q25.096 50.832 21.712 48.816Q18.328 46.728 15.376 44.568Q12.424 42.408 10.66 39.564Q8.896 36.72 8.896 32.688Q8.896 28.44 10.804 25.668Q12.712 22.896 15.808 21.564Q18.904 20.232 22.432 20.232Z"/>
  <path fill="#3D1F0A" d="M58.576 34.92V36.432Q56.776 36.432 55.408 36.684Q54.04 36.936 53.608 38.16Q53.176 39.384 54.256 42.48L61.744 63.936L61.24 63.864L71.824 34.632L73.264 35.208L60.088 72.36Q59.8 72.36 59.512 72.36Q59.224 72.36 58.864 72.36L47.056 40.464Q45.904 37.584 44.788 37.008Q43.672 36.432 42.88 36.432V34.92Q44.32 35.136 45.868 35.244Q47.416 35.352 49.216 35.352Q51.448 35.352 53.932 35.208Q56.416 35.064 58.576 34.92ZM98.104 34.92V36.36Q96.736 36.504 95.548 37.548Q94.36 38.592 93.424 41.4L82.984 72.36Q82.696 72.36 82.408 72.36Q82.12 72.36 81.76 72.36L70.168 42.912L71.824 34.632Q72.256 34.632 72.652 34.632Q73.048 34.632 73.48 34.632L84.712 64.368L84.136 64.8L91.264 43.128Q92.056 40.68 91.876 39.276Q91.696 37.872 90.436 37.188Q89.176 36.504 86.584 36.36V34.92Q87.88 34.992 88.816 35.028Q89.752 35.064 90.652 35.1Q91.552 35.136 92.632 35.136Q94.288 35.136 95.62 35.064Q96.952 34.992 98.104 34.92Z"/>
  <path fill="#3D1F0A" d="M117.904 33.912Q124.24 33.912 127.804 37.764Q131.368 41.616 131.368 49.752H105.952L105.88 48.384H124.456Q124.6 44.856 123.88 41.868Q123.16 38.88 121.612 37.08Q120.064 35.28 117.616 35.28Q114.304 35.28 111.748 38.592Q109.192 41.904 108.688 49.104L108.904 49.392Q108.76 50.472 108.688 51.768Q108.616 53.064 108.616 54.36Q108.616 59.256 110.2 62.784Q111.784 66.312 114.34 68.148Q116.896 69.984 119.632 69.984Q121.792 69.984 123.736 69.3Q125.68 68.616 127.336 67.032Q128.992 65.448 130.216 62.784L131.656 63.36Q130.864 65.736 129.064 67.968Q127.264 70.2 124.528 71.604Q121.792 73.008 118.192 73.008Q113.008 73.008 109.3 70.632Q105.592 68.256 103.612 64.044Q101.632 59.832 101.632 54.36Q101.632 48.024 103.648 43.452Q105.664 38.88 109.336 36.396Q113.008 33.912 117.904 33.912Z"/>
  <path fill="#3D1F0A" d="M147.064 72.504Q144.112 72.504 141.952 71.388Q139.792 70.272 138.676 68.256Q137.56 66.24 137.56 63.576Q137.56 60.408 139.036 58.392Q140.512 56.376 142.816 55.152Q145.12 53.928 147.676 53.1Q150.232 52.272 152.536 51.516Q154.84 50.76 156.316 49.752Q157.792 48.744 157.792 47.088V42.624Q157.792 39.6 156.892 38.016Q155.992 36.432 154.48 35.892Q152.968 35.352 151.096 35.352Q149.296 35.352 147.244 35.856Q145.192 36.36 143.968 37.944Q145.336 38.232 146.344 39.384Q147.352 40.536 147.352 42.336Q147.352 44.136 146.2 45.18Q145.048 46.224 143.248 46.224Q141.16 46.224 140.188 44.892Q139.216 43.56 139.216 41.904Q139.216 40.032 140.152 38.88Q141.088 37.728 142.528 36.72Q144.184 35.568 146.812 34.74Q149.44 33.912 152.752 33.912Q155.704 33.912 157.792 34.596Q159.88 35.28 161.248 36.576Q163.12 38.304 163.696 40.788Q164.272 43.272 164.272 46.728V66.744Q164.272 68.544 164.812 69.336Q165.352 70.128 166.504 70.128Q167.296 70.128 168.016 69.768Q168.736 69.408 169.744 68.616L170.536 69.84Q169.024 70.992 167.656 71.748Q166.288 72.504 163.984 72.504Q161.896 72.504 160.528 71.784Q159.16 71.064 158.476 69.66Q157.792 68.256 157.792 66.096Q155.848 69.336 153.148 70.92Q150.448 72.504 147.064 72.504ZM149.656 69.624Q152.032 69.624 154.084 68.256Q156.136 66.888 157.792 64.152V50.04Q156.928 51.264 155.272 52.092Q153.616 52.92 151.672 53.748Q149.728 54.576 147.964 55.692Q146.2 56.808 145.048 58.608Q143.896 60.408 143.896 63.288Q143.896 66.168 145.444 67.896Q146.992 69.624 149.656 69.624Z"/>
  <path fill="#3D1F0A" d="M184.288 22.968V34.992H194.944V36.432H184.288V64.296Q184.288 67.68 185.512 69.048Q186.736 70.416 188.896 70.416Q191.056 70.416 192.64 68.652Q194.224 66.888 195.376 62.712L196.816 63.072Q196.096 67.248 193.972 70.128Q191.848 73.008 187.456 73.008Q185.008 73.008 183.424 72.396Q181.84 71.784 180.616 70.632Q179.032 68.976 178.42 66.672Q177.808 64.368 177.808 60.552V36.432H170.896V34.992H177.808V23.976Q179.608 23.904 181.264 23.688Q182.92 23.472 184.288 22.968Z"/>
  <path fill="#C4510A" d="M252.904 56.592Q252.256 57.672 251.176 58.752Q250.096 59.832 248.44 60.588Q246.784 61.344 244.336 61.344Q242.392 61.344 240.628 60.696Q238.864 60.048 237.712 58.5Q236.56 56.952 236.56 54.288Q236.56 49.824 239.8 47.124Q243.04 44.424 248.512 42.408Q249.808 41.904 252.112 41.112Q254.416 40.32 257.116 39.348Q259.816 38.376 262.48 37.296Q265.144 36.216 267.16 35.28Q269.32 34.272 270.976 33.12Q272.632 31.968 273.604 30.528Q274.576 29.088 274.576 27.288Q274.576 24.624 272.524 22.86Q270.472 21.096 267.448 21.096Q265.576 21.096 265.144 21.744Q265.936 22.176 266.296 22.932Q266.656 23.688 266.656 24.48Q266.656 25.56 265.972 26.496Q265.288 27.432 264.208 28.008Q263.128 28.584 261.904 28.584Q260.536 28.584 259.6 27.792Q258.664 27.0 258.664 25.56Q258.664 23.976 259.744 22.824Q260.824 21.672 262.264 21.024Q263.488 20.448 264.82 20.232Q266.152 20.016 267.52 20.016Q270.184 20.016 272.2 20.88Q274.216 21.744 275.368 23.544Q276.52 25.344 276.52 28.224Q276.52 30.6 275.62 32.652Q274.72 34.704 272.776 36.468Q270.832 38.232 267.736 39.816Q265.792 40.752 262.984 41.868Q260.176 42.984 257.08 44.136Q253.984 45.288 251.104 46.332Q248.224 47.376 246.064 48.24Q244.624 48.816 242.824 49.716Q241.024 50.616 239.764 51.984Q238.504 53.352 238.504 55.368Q238.504 57.672 240.34 58.932Q242.176 60.192 244.624 60.192Q246.856 60.192 248.368 59.328Q249.88 58.464 250.78 57.456Q251.68 56.448 251.968 55.944ZM244.336 31.824Q246.28 31.824 247.54 30.78Q248.8 29.736 248.8 27.864Q248.8 25.416 246.784 24.012Q244.768 22.608 241.816 22.608Q238.864 22.608 236.56 24.012Q234.256 25.416 232.96 27.828Q231.664 30.24 231.664 33.336Q231.664 34.776 232.024 36.324Q232.384 37.872 233.248 39.312Q234.544 39.096 235.84 38.988Q237.136 38.88 237.784 38.88Q240.376 38.88 240.376 40.392Q240.376 41.184 239.656 41.544Q238.936 41.904 238.144 41.904Q236.776 41.904 235.372 41.292Q233.968 40.68 233.176 40.32Q229.936 41.256 227.452 43.38Q224.968 45.504 223.564 48.348Q222.16 51.192 222.16 54.504Q222.16 58.824 224.5 61.74Q226.84 64.656 230.944 66.168Q235.048 67.68 240.232 67.68Q244.408 67.68 248.008 66.744Q251.608 65.808 254.308 64.044Q257.008 62.28 258.52 59.796Q260.032 57.312 260.032 54.288Q260.032 51.624 258.7 48.852Q257.368 46.08 254.344 44.28L255.352 43.776Q258.304 45.936 259.888 48.78Q261.472 51.624 261.472 55.224Q261.472 58.752 259.888 61.956Q258.304 65.16 255.208 67.644Q252.112 70.128 247.684 71.568Q243.256 73.008 237.496 73.008Q231.16 73.008 226.516 71.172Q221.872 69.336 219.316 65.952Q216.76 62.568 216.76 57.816Q216.76 53.496 218.812 49.86Q220.864 46.224 224.356 43.596Q227.848 40.968 232.24 39.744Q229.792 38.376 228.496 36.216Q227.2 34.056 227.2 31.68Q227.2 28.368 229.432 26.1Q231.664 23.832 234.94 22.644Q238.216 21.456 241.456 21.456Q245.488 21.456 247.9 23.184Q250.312 24.912 250.312 27.72Q250.312 30.456 248.332 31.788Q246.352 33.12 244.192 33.12Z"/>
  <path fill="#3D1F0A" d="M309.208 20.232Q312.808 20.232 314.68 21.06Q316.552 21.888 317.992 22.896Q318.856 23.4 319.396 23.652Q319.936 23.904 320.44 23.904Q321.16 23.904 321.484 23.112Q321.808 22.32 322.024 20.736H323.68Q323.608 21.96 323.5 23.652Q323.392 25.344 323.356 28.116Q323.32 30.888 323.32 35.424H321.664Q321.448 31.968 320.152 28.8Q318.856 25.632 316.372 23.616Q313.888 21.6 309.856 21.6Q306.04 21.6 303.556 23.904Q301.072 26.208 301.072 29.952Q301.072 33.192 302.728 35.388Q304.384 37.584 307.156 39.348Q309.928 41.112 313.168 43.128Q316.912 45.432 319.828 47.7Q322.744 49.968 324.436 52.704Q326.128 55.44 326.128 59.328Q326.128 63.936 324.04 66.96Q321.952 69.984 318.496 71.496Q315.04 73.008 310.864 73.008Q307.048 73.008 304.816 72.144Q302.584 71.28 301.0 70.344Q299.416 69.336 298.552 69.336Q297.832 69.336 297.508 70.128Q297.184 70.92 296.968 72.504H295.312Q295.456 70.992 295.492 68.94Q295.528 66.888 295.564 63.576Q295.6 60.264 295.6 55.224H297.256Q297.544 59.544 298.876 63.288Q300.208 67.032 302.98 69.3Q305.752 71.568 310.36 71.568Q312.736 71.568 314.86 70.596Q316.984 69.624 318.352 67.5Q319.72 65.376 319.72 61.992Q319.72 59.04 318.316 56.844Q316.912 54.648 314.392 52.74Q311.872 50.832 308.488 48.816Q305.104 46.728 302.152 44.568Q299.2 42.408 297.436 39.564Q295.672 36.72 295.672 32.688Q295.672 28.44 297.58 25.668Q299.488 22.896 302.584 21.564Q305.68 20.232 309.208 20.232Z"/>
  <path fill="#3D1F0A" d="M349.384 33.912Q353.992 33.912 357.664 35.928Q361.336 37.944 363.532 42.264Q365.728 46.584 365.728 53.496Q365.728 60.408 363.532 64.692Q361.336 68.976 357.664 70.992Q353.992 73.008 349.384 73.008Q344.848 73.008 341.14 70.992Q337.432 68.976 335.236 64.692Q333.04 60.408 333.04 53.496Q333.04 46.584 335.236 42.264Q337.432 37.944 341.14 35.928Q344.848 33.912 349.384 33.912ZM349.384 35.352Q345.28 35.352 342.652 39.6Q340.024 43.848 340.024 53.496Q340.024 63.144 342.652 67.356Q345.28 71.568 349.384 71.568Q353.488 71.568 356.116 67.356Q358.744 63.144 358.744 53.496Q358.744 43.848 356.116 39.6Q353.488 35.352 349.384 35.352Z"/>
  <path fill="#3D1F0A" d="M403.888 34.128V64.224Q403.888 67.464 405.076 69.012Q406.264 70.56 409.36 70.56V72.072Q407.128 71.856 404.896 71.856Q402.808 71.856 400.9 72.072Q398.992 72.288 397.408 72.864V64.368Q395.608 69.048 392.332 71.028Q389.056 73.008 385.6 73.008Q383.08 73.008 381.208 72.288Q379.336 71.568 378.112 70.272Q376.744 68.832 376.24 66.528Q375.736 64.224 375.736 60.84V42.768Q375.736 39.528 374.584 37.98Q373.432 36.432 370.264 36.432V34.92Q372.568 35.136 374.728 35.136Q376.816 35.136 378.724 34.884Q380.632 34.632 382.216 34.128V62.424Q382.216 64.656 382.504 66.528Q382.792 68.4 383.944 69.552Q385.096 70.704 387.688 70.704Q390.496 70.704 392.692 68.976Q394.888 67.248 396.148 64.296Q397.408 61.344 397.408 57.672V42.768Q397.408 39.528 396.256 37.98Q395.104 36.432 391.936 36.432V34.92Q394.24 35.136 396.4 35.136Q398.488 35.136 400.396 34.884Q402.304 34.632 403.888 34.128Z"/>
  <path fill="#3D1F0A" d="M437.224 33.912Q439.96 33.912 441.796 34.632Q443.632 35.352 444.856 36.648Q446.224 38.088 446.8 40.248Q447.376 42.408 447.376 46.08V65.304Q447.376 68.328 448.636 69.408Q449.896 70.488 452.848 70.488V72.0Q451.624 71.928 449.104 71.82Q446.584 71.712 444.208 71.712Q441.832 71.712 439.564 71.82Q437.296 71.928 436.144 72.0V70.488Q438.736 70.488 439.816 69.408Q440.896 68.328 440.896 65.304V44.496Q440.896 42.264 440.536 40.392Q440.176 38.52 438.916 37.368Q437.656 36.216 435.064 36.216Q432.04 36.216 429.772 37.944Q427.504 39.672 426.244 42.66Q424.984 45.648 424.984 49.32V65.304Q424.984 68.328 426.064 69.408Q427.144 70.488 429.736 70.488V72.0Q428.584 71.928 426.316 71.82Q424.048 71.712 421.672 71.712Q419.296 71.712 416.776 71.82Q414.256 71.928 413.032 72.0V70.488Q415.984 70.488 417.244 69.408Q418.504 68.328 418.504 65.304V42.768Q418.504 39.528 417.352 37.98Q416.2 36.432 413.032 36.432V34.92Q415.336 35.136 417.496 35.136Q419.584 35.136 421.492 34.884Q423.4 34.632 424.984 34.128V42.624Q426.856 37.728 430.204 35.82Q433.552 33.912 437.224 33.912Z"/>
  <path fill="#3D1F0A" d="M488.776 15.552V64.152Q488.776 67.392 489.964 68.94Q491.152 70.488 494.248 70.488V72.0Q492.016 71.784 489.784 71.784Q487.696 71.784 485.788 72.0Q483.88 72.216 482.296 72.792V24.192Q482.296 20.952 481.144 19.404Q479.992 17.856 476.824 17.856V16.344Q479.128 16.56 481.288 16.56Q483.376 16.56 485.284 16.308Q487.192 16.056 488.776 15.552ZM473.656 33.912Q476.824 33.912 479.596 35.424Q482.368 36.936 483.304 40.608L482.368 41.328Q481.36 38.304 479.236 36.936Q477.112 35.568 474.232 35.568Q469.984 35.568 467.14 39.96Q464.296 44.352 464.368 53.496Q464.368 59.328 465.484 63.18Q466.6 67.032 468.796 68.94Q470.992 70.848 474.16 70.848Q477.184 70.848 479.632 68.256Q482.08 65.664 482.584 60.624L483.448 61.632Q482.872 67.104 479.956 70.056Q477.04 73.008 472.072 73.008Q467.608 73.008 464.26 70.848Q460.912 68.688 459.148 64.368Q457.384 60.048 457.384 53.496Q457.384 46.944 459.652 42.588Q461.92 38.232 465.628 36.072Q469.336 33.912 473.656 33.912Z"/>
</svg>