<svg xmlns="http://www.w3.org/2000/svg"
  viewBox="0 0 100 100" width="100" height="100">
  <rect width="100" height="100" rx="22" fill="#3D1F0A"/>
  <path fill="#C4510A" d="M58.386 63.494Q57.518 64.94 56.072 66.386Q54.627 67.831 52.41 68.843Q50.193 69.855 46.916 69.855Q44.313 69.855 41.952 68.988Q39.59 68.12 38.048 66.048Q36.506 63.976 36.506 60.41Q36.506 54.434 40.843 50.819Q45.181 47.205 52.506 44.506Q54.241 43.831 57.325 42.771Q60.41 41.711 64.024 40.41Q67.639 39.108 71.205 37.663Q74.771 36.217 77.47 34.964Q80.361 33.614 82.578 32.072Q84.795 30.53 86.096 28.602Q87.398 26.675 87.398 24.265Q87.398 20.699 84.651 18.337Q81.904 15.976 77.855 15.976Q75.349 15.976 74.771 16.843Q75.831 17.422 76.313 18.434Q76.795 19.446 76.795 20.506Q76.795 21.952 75.88 23.205Q74.964 24.458 73.518 25.229Q72.072 26.0 70.434 26.0Q68.602 26.0 67.349 24.94Q66.096 23.88 66.096 21.952Q66.096 19.831 67.542 18.289Q68.988 16.747 70.916 15.88Q72.554 15.108 74.337 14.819Q76.12 14.53 77.952 14.53Q81.518 14.53 84.217 15.687Q86.916 16.843 88.458 19.253Q90.0 21.663 90.0 25.518Q90.0 28.699 88.795 31.446Q87.59 34.193 84.988 36.554Q82.386 38.916 78.241 41.036Q75.639 42.289 71.88 43.783Q68.12 45.277 63.976 46.819Q59.831 48.361 55.976 49.759Q52.12 51.157 49.229 52.313Q47.301 53.084 44.892 54.289Q42.482 55.494 40.795 57.325Q39.108 59.157 39.108 61.855Q39.108 64.94 41.566 66.627Q44.024 68.313 47.301 68.313Q50.289 68.313 52.313 67.157Q54.337 66.0 55.542 64.651Q56.747 63.301 57.133 62.627ZM46.916 30.337Q49.518 30.337 51.205 28.94Q52.892 27.542 52.892 25.036Q52.892 21.759 50.193 19.88Q47.494 18.0 43.542 18.0Q39.59 18.0 36.506 19.88Q33.422 21.759 31.687 24.988Q29.952 28.217 29.952 32.361Q29.952 34.289 30.434 36.361Q30.916 38.434 32.072 40.361Q33.807 40.072 35.542 39.928Q37.277 39.783 38.145 39.783Q41.614 39.783 41.614 41.807Q41.614 42.867 40.651 43.349Q39.687 43.831 38.627 43.831Q36.795 43.831 34.916 43.012Q33.036 42.193 31.976 41.711Q27.639 42.964 24.313 45.807Q20.988 48.651 19.108 52.458Q17.229 56.265 17.229 60.699Q17.229 66.482 20.361 70.386Q23.494 74.289 28.988 76.313Q34.482 78.337 41.422 78.337Q47.012 78.337 51.831 77.084Q56.651 75.831 60.265 73.47Q63.88 71.108 65.904 67.783Q67.928 64.458 67.928 60.41Q67.928 56.843 66.145 53.133Q64.361 49.422 60.313 47.012L61.663 46.337Q65.614 49.229 67.735 53.036Q69.855 56.843 69.855 61.663Q69.855 66.386 67.735 70.675Q65.614 74.964 61.47 78.289Q57.325 81.614 51.398 83.542Q45.47 85.47 37.759 85.47Q29.277 85.47 23.06 83.012Q16.843 80.554 13.422 76.024Q10.0 71.494 10.0 65.133Q10.0 59.349 12.747 54.482Q15.494 49.614 20.169 46.096Q24.843 42.578 30.723 40.94Q27.446 39.108 25.711 36.217Q23.976 33.325 23.976 30.145Q23.976 25.711 26.964 22.675Q29.952 19.639 34.337 18.048Q38.723 16.458 43.06 16.458Q48.458 16.458 51.687 18.771Q54.916 21.084 54.916 24.843Q54.916 28.506 52.265 30.289Q49.614 32.072 46.723 32.072Z"/>
</svg>